<mxfile host="65bd71144e">
    <diagram name="PÃ¡gina-1" id="Fnqt6cFY-0z39e2Vpy3_">
        <mxGraphModel dx="2147" dy="1919" grid="1" gridSize="10" guides="1" tooltips="1" connect="1" arrows="1" fold="1" page="1" pageScale="1" pageWidth="827" pageHeight="1169" math="0" shadow="0">
            <root>
                <mxCell id="0"/>
                <mxCell id="1" parent="0"/>
                <mxCell id="k2nv1DuakvxcrRJSJLX4-17" value="N:1" style="edgeStyle=none;rounded=0;orthogonalLoop=1;jettySize=auto;html=1;exitX=1;exitY=0.5;exitDx=0;exitDy=0;entryX=0;entryY=0.5;entryDx=0;entryDy=0;endArrow=none;endFill=0;" parent="1" source="k2nv1DuakvxcrRJSJLX4-1" target="k2nv1DuakvxcrRJSJLX4-15" edge="1">
                    <mxGeometry relative="1" as="geometry"/>
                </mxCell>
                <mxCell id="diqf533qpP0sOaUMTr-r-8" style="rounded=0;orthogonalLoop=1;jettySize=auto;html=1;exitX=1;exitY=0.75;exitDx=0;exitDy=0;entryX=0;entryY=0.5;entryDx=0;entryDy=0;endArrow=none;endFill=0;" parent="1" source="k2nv1DuakvxcrRJSJLX4-1" edge="1">
                    <mxGeometry relative="1" as="geometry">
                        <mxPoint x="200" y="280" as="targetPoint"/>
                    </mxGeometry>
                </mxCell>
                <mxCell id="diqf533qpP0sOaUMTr-r-10" value="1:M" style="edgeLabel;html=1;align=center;verticalAlign=middle;resizable=0;points=[];" parent="diqf533qpP0sOaUMTr-r-8" connectable="0" vertex="1">
                    <mxGeometry x="0.2099" relative="1" as="geometry">
                        <mxPoint as="offset"/>
                    </mxGeometry>
                </mxCell>
                <mxCell id="k2nv1DuakvxcrRJSJLX4-1" value="sucursal" style="whiteSpace=wrap;html=1;align=center;" parent="1" vertex="1">
                    <mxGeometry x="30" y="130" width="100" height="40" as="geometry"/>
                </mxCell>
                <mxCell id="k2nv1DuakvxcrRJSJLX4-5" style="edgeStyle=none;rounded=0;orthogonalLoop=1;jettySize=auto;html=1;exitX=0.5;exitY=0;exitDx=0;exitDy=0;entryX=0.5;entryY=1;entryDx=0;entryDy=0;endArrow=none;endFill=0;" parent="1" source="k2nv1DuakvxcrRJSJLX4-2" target="k2nv1DuakvxcrRJSJLX4-1" edge="1">
                    <mxGeometry relative="1" as="geometry"/>
                </mxCell>
                <mxCell id="k2nv1DuakvxcrRJSJLX4-2" value="&lt;span style=&quot;border-bottom: 1px dotted&quot;&gt;id&lt;/span&gt;" style="ellipse;whiteSpace=wrap;html=1;align=center;" parent="1" vertex="1">
                    <mxGeometry x="30" y="190" width="100" height="40" as="geometry"/>
                </mxCell>
                <mxCell id="k2nv1DuakvxcrRJSJLX4-4" style="rounded=0;orthogonalLoop=1;jettySize=auto;html=1;exitX=0.5;exitY=1;exitDx=0;exitDy=0;entryX=0.5;entryY=0;entryDx=0;entryDy=0;endArrow=none;endFill=0;" parent="1" source="k2nv1DuakvxcrRJSJLX4-3" target="k2nv1DuakvxcrRJSJLX4-1" edge="1">
                    <mxGeometry relative="1" as="geometry"/>
                </mxCell>
                <mxCell id="k2nv1DuakvxcrRJSJLX4-3" value="nombre" style="ellipse;whiteSpace=wrap;html=1;align=center;" parent="1" vertex="1">
                    <mxGeometry x="30" y="60" width="100" height="40" as="geometry"/>
                </mxCell>
                <mxCell id="k2nv1DuakvxcrRJSJLX4-10" style="edgeStyle=none;rounded=0;orthogonalLoop=1;jettySize=auto;html=1;exitX=1;exitY=0;exitDx=0;exitDy=0;entryX=0.5;entryY=1;entryDx=0;entryDy=0;endArrow=none;endFill=0;" parent="1" source="k2nv1DuakvxcrRJSJLX4-6" target="k2nv1DuakvxcrRJSJLX4-9" edge="1">
                    <mxGeometry relative="1" as="geometry"/>
                </mxCell>
                <mxCell id="k2nv1DuakvxcrRJSJLX4-12" style="edgeStyle=none;rounded=0;orthogonalLoop=1;jettySize=auto;html=1;exitX=1;exitY=1;exitDx=0;exitDy=0;entryX=0.5;entryY=0;entryDx=0;entryDy=0;endArrow=none;endFill=0;" parent="1" source="k2nv1DuakvxcrRJSJLX4-6" target="k2nv1DuakvxcrRJSJLX4-11" edge="1">
                    <mxGeometry relative="1" as="geometry"/>
                </mxCell>
                <mxCell id="k2nv1DuakvxcrRJSJLX4-14" style="edgeStyle=none;rounded=0;orthogonalLoop=1;jettySize=auto;html=1;exitX=0;exitY=0;exitDx=0;exitDy=0;endArrow=none;endFill=0;entryX=0.5;entryY=1;entryDx=0;entryDy=0;" parent="1" source="k2nv1DuakvxcrRJSJLX4-6" target="k2nv1DuakvxcrRJSJLX4-13" edge="1">
                    <mxGeometry relative="1" as="geometry"/>
                </mxCell>
                <mxCell id="k2nv1DuakvxcrRJSJLX4-31" value="1:1" style="edgeStyle=none;rounded=0;orthogonalLoop=1;jettySize=auto;html=1;exitX=1;exitY=0.5;exitDx=0;exitDy=0;entryX=0;entryY=0.5;entryDx=0;entryDy=0;endArrow=none;endFill=0;" parent="1" source="k2nv1DuakvxcrRJSJLX4-6" edge="1">
                    <mxGeometry relative="1" as="geometry">
                        <mxPoint x="720" y="180" as="targetPoint"/>
                    </mxGeometry>
                </mxCell>
                <mxCell id="k2nv1DuakvxcrRJSJLX4-73" value="1:N" style="edgeStyle=none;rounded=0;orthogonalLoop=1;jettySize=auto;html=1;exitX=0.5;exitY=1;exitDx=0;exitDy=0;entryX=0.5;entryY=0;entryDx=0;entryDy=0;endArrow=none;endFill=0;" parent="1" source="k2nv1DuakvxcrRJSJLX4-6" target="k2nv1DuakvxcrRJSJLX4-71" edge="1">
                    <mxGeometry relative="1" as="geometry"/>
                </mxCell>
                <mxCell id="k2nv1DuakvxcrRJSJLX4-6" value="Producto" style="whiteSpace=wrap;html=1;align=center;" parent="1" vertex="1">
                    <mxGeometry x="540" y="160" width="100" height="40" as="geometry"/>
                </mxCell>
                <mxCell id="k2nv1DuakvxcrRJSJLX4-8" style="edgeStyle=none;rounded=0;orthogonalLoop=1;jettySize=auto;html=1;exitX=0.5;exitY=1;exitDx=0;exitDy=0;entryX=0.5;entryY=0;entryDx=0;entryDy=0;endArrow=none;endFill=0;" parent="1" source="k2nv1DuakvxcrRJSJLX4-7" target="k2nv1DuakvxcrRJSJLX4-6" edge="1">
                    <mxGeometry relative="1" as="geometry"/>
                </mxCell>
                <mxCell id="k2nv1DuakvxcrRJSJLX4-7" value="&lt;span style=&quot;border-bottom: 1px dotted&quot;&gt;id&lt;/span&gt;" style="ellipse;whiteSpace=wrap;html=1;align=center;" parent="1" vertex="1">
                    <mxGeometry x="530" y="10" width="100" height="40" as="geometry"/>
                </mxCell>
                <mxCell id="k2nv1DuakvxcrRJSJLX4-9" value="nombre" style="ellipse;whiteSpace=wrap;html=1;align=center;" parent="1" vertex="1">
                    <mxGeometry x="640" y="60" width="100" height="40" as="geometry"/>
                </mxCell>
                <mxCell id="k2nv1DuakvxcrRJSJLX4-11" value="marca" style="ellipse;whiteSpace=wrap;html=1;align=center;" parent="1" vertex="1">
                    <mxGeometry x="670" y="255" width="100" height="40" as="geometry"/>
                </mxCell>
                <mxCell id="k2nv1DuakvxcrRJSJLX4-13" value="valor" style="ellipse;whiteSpace=wrap;html=1;align=center;" parent="1" vertex="1">
                    <mxGeometry x="460" y="60" width="100" height="40" as="geometry"/>
                </mxCell>
                <mxCell id="k2nv1DuakvxcrRJSJLX4-16" value="1:N" style="edgeStyle=none;rounded=0;orthogonalLoop=1;jettySize=auto;html=1;exitX=1;exitY=0.5;exitDx=0;exitDy=0;entryX=0;entryY=0.5;entryDx=0;entryDy=0;endArrow=none;endFill=0;" parent="1" source="k2nv1DuakvxcrRJSJLX4-15" target="k2nv1DuakvxcrRJSJLX4-6" edge="1">
                    <mxGeometry relative="1" as="geometry"/>
                </mxCell>
                <mxCell id="k2nv1DuakvxcrRJSJLX4-21" style="edgeStyle=none;rounded=0;orthogonalLoop=1;jettySize=auto;html=1;exitX=0.25;exitY=0;exitDx=0;exitDy=0;entryX=0.5;entryY=1;entryDx=0;entryDy=0;endArrow=none;endFill=0;" parent="1" source="k2nv1DuakvxcrRJSJLX4-15" target="k2nv1DuakvxcrRJSJLX4-18" edge="1">
                    <mxGeometry relative="1" as="geometry"/>
                </mxCell>
                <mxCell id="k2nv1DuakvxcrRJSJLX4-15" value="stock" style="shape=associativeEntity;whiteSpace=wrap;html=1;align=center;" parent="1" vertex="1">
                    <mxGeometry x="260" y="50" width="140" height="60" as="geometry"/>
                </mxCell>
                <mxCell id="k2nv1DuakvxcrRJSJLX4-18" value="sucursal" style="ellipse;whiteSpace=wrap;html=1;align=center;" parent="1" vertex="1">
                    <mxGeometry x="220" y="-30" width="100" height="40" as="geometry"/>
                </mxCell>
                <mxCell id="k2nv1DuakvxcrRJSJLX4-20" style="edgeStyle=none;rounded=0;orthogonalLoop=1;jettySize=auto;html=1;exitX=0.5;exitY=0;exitDx=0;exitDy=0;entryX=0.5;entryY=1;entryDx=0;entryDy=0;endArrow=none;endFill=0;" parent="1" source="k2nv1DuakvxcrRJSJLX4-19" target="k2nv1DuakvxcrRJSJLX4-15" edge="1">
                    <mxGeometry relative="1" as="geometry"/>
                </mxCell>
                <mxCell id="k2nv1DuakvxcrRJSJLX4-19" value="producto" style="ellipse;whiteSpace=wrap;html=1;align=center;" parent="1" vertex="1">
                    <mxGeometry x="340" y="150" width="100" height="40" as="geometry"/>
                </mxCell>
                <mxCell id="k2nv1DuakvxcrRJSJLX4-23" style="edgeStyle=none;rounded=0;orthogonalLoop=1;jettySize=auto;html=1;exitX=0.5;exitY=0;exitDx=0;exitDy=0;entryX=0.5;entryY=1;entryDx=0;entryDy=0;endArrow=none;endFill=0;" parent="1" source="k2nv1DuakvxcrRJSJLX4-22" target="k2nv1DuakvxcrRJSJLX4-15" edge="1">
                    <mxGeometry relative="1" as="geometry"/>
                </mxCell>
                <mxCell id="k2nv1DuakvxcrRJSJLX4-22" value="cantidad" style="ellipse;whiteSpace=wrap;html=1;align=center;" parent="1" vertex="1">
                    <mxGeometry x="220" y="150" width="100" height="40" as="geometry"/>
                </mxCell>
                <mxCell id="k2nv1DuakvxcrRJSJLX4-25" value="bodega" style="shape=ext;margin=3;double=1;whiteSpace=wrap;html=1;align=center;" parent="1" vertex="1">
                    <mxGeometry x="900" y="160" width="100" height="40" as="geometry"/>
                </mxCell>
                <mxCell id="k2nv1DuakvxcrRJSJLX4-28" style="edgeStyle=none;rounded=0;orthogonalLoop=1;jettySize=auto;html=1;exitX=0.5;exitY=1;exitDx=0;exitDy=0;entryX=0.5;entryY=0;entryDx=0;entryDy=0;endArrow=none;endFill=0;" parent="1" source="k2nv1DuakvxcrRJSJLX4-26" target="k2nv1DuakvxcrRJSJLX4-25" edge="1">
                    <mxGeometry relative="1" as="geometry"/>
                </mxCell>
                <mxCell id="k2nv1DuakvxcrRJSJLX4-26" value="producto" style="ellipse;whiteSpace=wrap;html=1;align=center;" parent="1" vertex="1">
                    <mxGeometry x="900" y="100" width="100" height="40" as="geometry"/>
                </mxCell>
                <mxCell id="k2nv1DuakvxcrRJSJLX4-29" style="edgeStyle=none;rounded=0;orthogonalLoop=1;jettySize=auto;html=1;exitX=0.5;exitY=0;exitDx=0;exitDy=0;entryX=0.5;entryY=1;entryDx=0;entryDy=0;endArrow=none;endFill=0;" parent="1" source="k2nv1DuakvxcrRJSJLX4-27" target="k2nv1DuakvxcrRJSJLX4-25" edge="1">
                    <mxGeometry relative="1" as="geometry"/>
                </mxCell>
                <mxCell id="k2nv1DuakvxcrRJSJLX4-27" value="cantidad" style="ellipse;whiteSpace=wrap;html=1;align=center;" parent="1" vertex="1">
                    <mxGeometry x="900" y="230" width="100" height="40" as="geometry"/>
                </mxCell>
                <mxCell id="k2nv1DuakvxcrRJSJLX4-32" value="1:1" style="edgeStyle=none;rounded=0;orthogonalLoop=1;jettySize=auto;html=1;exitX=1;exitY=0.5;exitDx=0;exitDy=0;entryX=0;entryY=0.5;entryDx=0;entryDy=0;endArrow=none;endFill=0;" parent="1" target="k2nv1DuakvxcrRJSJLX4-25" edge="1">
                    <mxGeometry relative="1" as="geometry">
                        <mxPoint x="840" y="180" as="sourcePoint"/>
                    </mxGeometry>
                </mxCell>
                <mxCell id="k2nv1DuakvxcrRJSJLX4-37" style="edgeStyle=none;rounded=0;orthogonalLoop=1;jettySize=auto;html=1;exitX=0;exitY=1;exitDx=0;exitDy=0;entryX=0.5;entryY=0;entryDx=0;entryDy=0;endArrow=none;endFill=0;" parent="1" source="k2nv1DuakvxcrRJSJLX4-33" target="k2nv1DuakvxcrRJSJLX4-36" edge="1">
                    <mxGeometry relative="1" as="geometry"/>
                </mxCell>
                <mxCell id="k2nv1DuakvxcrRJSJLX4-77" value="1:1" style="edgeStyle=none;rounded=0;orthogonalLoop=1;jettySize=auto;html=1;exitX=1;exitY=0.5;exitDx=0;exitDy=0;entryX=0;entryY=0.5;entryDx=0;entryDy=0;endArrow=none;endFill=0;" parent="1" source="k2nv1DuakvxcrRJSJLX4-33" edge="1">
                    <mxGeometry relative="1" as="geometry">
                        <mxPoint x="310" y="620" as="targetPoint"/>
                    </mxGeometry>
                </mxCell>
                <mxCell id="k2nv1DuakvxcrRJSJLX4-33" value="cliente" style="whiteSpace=wrap;html=1;align=center;" parent="1" vertex="1">
                    <mxGeometry x="110" y="600" width="100" height="40" as="geometry"/>
                </mxCell>
                <mxCell id="k2nv1DuakvxcrRJSJLX4-35" style="edgeStyle=none;rounded=0;orthogonalLoop=1;jettySize=auto;html=1;exitX=0.5;exitY=1;exitDx=0;exitDy=0;entryX=0;entryY=0;entryDx=0;entryDy=0;endArrow=none;endFill=0;" parent="1" source="k2nv1DuakvxcrRJSJLX4-34" target="k2nv1DuakvxcrRJSJLX4-33" edge="1">
                    <mxGeometry relative="1" as="geometry"/>
                </mxCell>
                <mxCell id="k2nv1DuakvxcrRJSJLX4-34" value="&lt;span style=&quot;border-bottom: 1px dotted&quot;&gt;nit&lt;/span&gt;" style="ellipse;whiteSpace=wrap;html=1;align=center;" parent="1" vertex="1">
                    <mxGeometry y="550" width="100" height="40" as="geometry"/>
                </mxCell>
                <mxCell id="k2nv1DuakvxcrRJSJLX4-36" value="nombre" style="ellipse;whiteSpace=wrap;html=1;align=center;" parent="1" vertex="1">
                    <mxGeometry y="650" width="100" height="40" as="geometry"/>
                </mxCell>
                <mxCell id="k2nv1DuakvxcrRJSJLX4-46" value="1:1" style="edgeStyle=none;rounded=0;orthogonalLoop=1;jettySize=auto;html=1;exitX=1;exitY=0.5;exitDx=0;exitDy=0;entryX=0;entryY=0.5;entryDx=0;entryDy=0;endArrow=none;endFill=0;" parent="1" source="k2nv1DuakvxcrRJSJLX4-38" target="k2nv1DuakvxcrRJSJLX4-109" edge="1">
                    <mxGeometry relative="1" as="geometry">
                        <mxPoint x="-90" y="210" as="targetPoint"/>
                    </mxGeometry>
                </mxCell>
                <mxCell id="k2nv1DuakvxcrRJSJLX4-50" value="1:1" style="edgeStyle=none;rounded=0;orthogonalLoop=1;jettySize=auto;html=1;exitX=0.5;exitY=1;exitDx=0;exitDy=0;entryX=0.5;entryY=0;entryDx=0;entryDy=0;endArrow=none;endFill=0;" parent="1" source="k2nv1DuakvxcrRJSJLX4-38" target="k2nv1DuakvxcrRJSJLX4-49" edge="1">
                    <mxGeometry relative="1" as="geometry"/>
                </mxCell>
                <mxCell id="k2nv1DuakvxcrRJSJLX4-53" style="edgeStyle=none;rounded=0;orthogonalLoop=1;jettySize=auto;html=1;exitX=0.5;exitY=0;exitDx=0;exitDy=0;entryX=0.5;entryY=1;entryDx=0;entryDy=0;endArrow=none;endFill=0;" parent="1" source="k2nv1DuakvxcrRJSJLX4-38" target="k2nv1DuakvxcrRJSJLX4-52" edge="1">
                    <mxGeometry relative="1" as="geometry"/>
                </mxCell>
                <mxCell id="k2nv1DuakvxcrRJSJLX4-69" value="1:1" style="edgeStyle=none;rounded=0;orthogonalLoop=1;jettySize=auto;html=1;exitX=1;exitY=1;exitDx=0;exitDy=0;entryX=0;entryY=0.5;entryDx=0;entryDy=0;endArrow=none;endFill=0;" parent="1" source="k2nv1DuakvxcrRJSJLX4-38" edge="1">
                    <mxGeometry relative="1" as="geometry">
                        <mxPoint x="20" y="310" as="targetPoint"/>
                    </mxGeometry>
                </mxCell>
                <mxCell id="k2nv1DuakvxcrRJSJLX4-38" value="empleado" style="whiteSpace=wrap;html=1;align=center;" parent="1" vertex="1">
                    <mxGeometry x="-367" y="190" width="100" height="40" as="geometry"/>
                </mxCell>
                <mxCell id="k2nv1DuakvxcrRJSJLX4-47" value="1:1" style="edgeStyle=none;rounded=0;orthogonalLoop=1;jettySize=auto;html=1;exitX=1;exitY=0.5;exitDx=0;exitDy=0;endArrow=none;endFill=0;" parent="1" source="k2nv1DuakvxcrRJSJLX4-109" target="k2nv1DuakvxcrRJSJLX4-1" edge="1">
                    <mxGeometry relative="1" as="geometry">
                        <mxPoint x="30" y="210" as="sourcePoint"/>
                    </mxGeometry>
                </mxCell>
                <mxCell id="k2nv1DuakvxcrRJSJLX4-41" style="edgeStyle=none;rounded=0;orthogonalLoop=1;jettySize=auto;html=1;exitX=1;exitY=0.5;exitDx=0;exitDy=0;entryX=0.25;entryY=0;entryDx=0;entryDy=0;endArrow=none;endFill=0;" parent="1" source="k2nv1DuakvxcrRJSJLX4-40" target="k2nv1DuakvxcrRJSJLX4-38" edge="1">
                    <mxGeometry relative="1" as="geometry"/>
                </mxCell>
                <mxCell id="k2nv1DuakvxcrRJSJLX4-40" value="nombre" style="ellipse;whiteSpace=wrap;html=1;align=center;" parent="1" vertex="1">
                    <mxGeometry x="-517" y="120" width="100" height="40" as="geometry"/>
                </mxCell>
                <mxCell id="k2nv1DuakvxcrRJSJLX4-43" style="edgeStyle=none;rounded=0;orthogonalLoop=1;jettySize=auto;html=1;exitX=1;exitY=0.5;exitDx=0;exitDy=0;entryX=0;entryY=0.5;entryDx=0;entryDy=0;endArrow=none;endFill=0;" parent="1" source="k2nv1DuakvxcrRJSJLX4-42" target="k2nv1DuakvxcrRJSJLX4-38" edge="1">
                    <mxGeometry relative="1" as="geometry"/>
                </mxCell>
                <mxCell id="k2nv1DuakvxcrRJSJLX4-42" value="nickname" style="ellipse;whiteSpace=wrap;html=1;align=center;fontStyle=4;" parent="1" vertex="1">
                    <mxGeometry x="-520" y="190" width="100" height="40" as="geometry"/>
                </mxCell>
                <mxCell id="k2nv1DuakvxcrRJSJLX4-48" value="rol" style="whiteSpace=wrap;html=1;align=center;" parent="1" vertex="1">
                    <mxGeometry x="-90" y="350" width="100" height="40" as="geometry"/>
                </mxCell>
                <mxCell id="k2nv1DuakvxcrRJSJLX4-51" value="1:1" style="edgeStyle=none;rounded=0;orthogonalLoop=1;jettySize=auto;html=1;exitX=1;exitY=0.5;exitDx=0;exitDy=0;entryX=0;entryY=0.5;entryDx=0;entryDy=0;endArrow=none;endFill=0;" parent="1" source="k2nv1DuakvxcrRJSJLX4-49" target="k2nv1DuakvxcrRJSJLX4-48" edge="1">
                    <mxGeometry relative="1" as="geometry"/>
                </mxCell>
                <mxCell id="k2nv1DuakvxcrRJSJLX4-49" value="posee" style="shape=rhombus;perimeter=rhombusPerimeter;whiteSpace=wrap;html=1;align=center;" parent="1" vertex="1">
                    <mxGeometry x="-377" y="340" width="120" height="60" as="geometry"/>
                </mxCell>
                <mxCell id="k2nv1DuakvxcrRJSJLX4-52" value="rol" style="ellipse;whiteSpace=wrap;html=1;align=center;" parent="1" vertex="1">
                    <mxGeometry x="-367" y="80" width="100" height="40" as="geometry"/>
                </mxCell>
                <mxCell id="k2nv1DuakvxcrRJSJLX4-56" style="edgeStyle=none;rounded=0;orthogonalLoop=1;jettySize=auto;html=1;exitX=0.5;exitY=0;exitDx=0;exitDy=0;entryX=0.5;entryY=1;entryDx=0;entryDy=0;endArrow=none;endFill=0;" parent="1" source="k2nv1DuakvxcrRJSJLX4-54" target="k2nv1DuakvxcrRJSJLX4-48" edge="1">
                    <mxGeometry relative="1" as="geometry"/>
                </mxCell>
                <mxCell id="k2nv1DuakvxcrRJSJLX4-54" value="nombre" style="ellipse;whiteSpace=wrap;html=1;align=center;" parent="1" vertex="1">
                    <mxGeometry x="-140" y="440" width="100" height="40" as="geometry"/>
                </mxCell>
                <mxCell id="k2nv1DuakvxcrRJSJLX4-57" style="edgeStyle=none;rounded=0;orthogonalLoop=1;jettySize=auto;html=1;exitX=0.5;exitY=0;exitDx=0;exitDy=0;entryX=0.5;entryY=1;entryDx=0;entryDy=0;endArrow=none;endFill=0;" parent="1" source="k2nv1DuakvxcrRJSJLX4-55" target="k2nv1DuakvxcrRJSJLX4-48" edge="1">
                    <mxGeometry relative="1" as="geometry"/>
                </mxCell>
                <mxCell id="k2nv1DuakvxcrRJSJLX4-55" value="&lt;span style=&quot;border-bottom: 1px dotted&quot;&gt;id&lt;/span&gt;" style="ellipse;whiteSpace=wrap;html=1;align=center;" parent="1" vertex="1">
                    <mxGeometry x="-10" y="440" width="100" height="40" as="geometry"/>
                </mxCell>
                <mxCell id="k2nv1DuakvxcrRJSJLX4-63" style="edgeStyle=none;rounded=0;orthogonalLoop=1;jettySize=auto;html=1;exitX=0;exitY=0.75;exitDx=0;exitDy=0;entryX=1;entryY=0.5;entryDx=0;entryDy=0;endArrow=none;endFill=0;" parent="1" target="k2nv1DuakvxcrRJSJLX4-62" edge="1">
                    <mxGeometry relative="1" as="geometry">
                        <mxPoint x="320" y="450" as="sourcePoint"/>
                    </mxGeometry>
                </mxCell>
                <mxCell id="k2nv1DuakvxcrRJSJLX4-65" style="edgeStyle=none;rounded=0;orthogonalLoop=1;jettySize=auto;html=1;exitX=0;exitY=1;exitDx=0;exitDy=0;entryX=1;entryY=0;entryDx=0;entryDy=0;endArrow=none;endFill=0;" parent="1" target="k2nv1DuakvxcrRJSJLX4-64" edge="1">
                    <mxGeometry relative="1" as="geometry">
                        <mxPoint x="320" y="460" as="sourcePoint"/>
                    </mxGeometry>
                </mxCell>
                <mxCell id="k2nv1DuakvxcrRJSJLX4-67" style="edgeStyle=none;rounded=0;orthogonalLoop=1;jettySize=auto;html=1;exitX=0.75;exitY=1;exitDx=0;exitDy=0;entryX=0.5;entryY=0;entryDx=0;entryDy=0;endArrow=none;endFill=0;" parent="1" target="k2nv1DuakvxcrRJSJLX4-66" edge="1">
                    <mxGeometry relative="1" as="geometry">
                        <mxPoint x="395" y="460" as="sourcePoint"/>
                    </mxGeometry>
                </mxCell>
                <mxCell id="k2nv1DuakvxcrRJSJLX4-72" value="1:N" style="edgeStyle=none;rounded=0;orthogonalLoop=1;jettySize=auto;html=1;exitX=1;exitY=0.5;exitDx=0;exitDy=0;entryX=0;entryY=0.5;entryDx=0;entryDy=0;endArrow=none;endFill=0;" parent="1" target="k2nv1DuakvxcrRJSJLX4-71" edge="1">
                    <mxGeometry relative="1" as="geometry">
                        <mxPoint x="420" y="440" as="sourcePoint"/>
                    </mxGeometry>
                </mxCell>
                <mxCell id="k2nv1DuakvxcrRJSJLX4-76" value="1:N" style="edgeStyle=none;rounded=0;orthogonalLoop=1;jettySize=auto;html=1;exitX=0.5;exitY=1;exitDx=0;exitDy=0;entryX=0.5;entryY=0;entryDx=0;entryDy=0;endArrow=none;endFill=0;" parent="1" edge="1">
                    <mxGeometry relative="1" as="geometry">
                        <mxPoint x="370" y="460" as="sourcePoint"/>
                        <mxPoint x="370" y="590" as="targetPoint"/>
                    </mxGeometry>
                </mxCell>
                <mxCell id="diqf533qpP0sOaUMTr-r-4" style="rounded=0;orthogonalLoop=1;jettySize=auto;html=1;exitX=1;exitY=0;exitDx=0;exitDy=0;entryX=0;entryY=0.5;entryDx=0;entryDy=0;endArrow=none;endFill=0;" parent="1" target="diqf533qpP0sOaUMTr-r-1" edge="1">
                    <mxGeometry relative="1" as="geometry">
                        <mxPoint x="420" y="420" as="sourcePoint"/>
                    </mxGeometry>
                </mxCell>
                <mxCell id="diqf533qpP0sOaUMTr-r-6" style="rounded=0;orthogonalLoop=1;jettySize=auto;html=1;exitX=1;exitY=1;exitDx=0;exitDy=0;entryX=0;entryY=0.5;entryDx=0;entryDy=0;endArrow=none;endFill=0;" parent="1" target="diqf533qpP0sOaUMTr-r-5" edge="1">
                    <mxGeometry relative="1" as="geometry">
                        <mxPoint x="420" y="460" as="sourcePoint"/>
                    </mxGeometry>
                </mxCell>
                <mxCell id="k2nv1DuakvxcrRJSJLX4-62" value="&lt;span style=&quot;border-bottom: 1px dotted&quot;&gt;id&lt;br&gt;&lt;/span&gt;" style="ellipse;whiteSpace=wrap;html=1;align=center;" parent="1" vertex="1">
                    <mxGeometry x="150" y="430" width="100" height="40" as="geometry"/>
                </mxCell>
                <mxCell id="k2nv1DuakvxcrRJSJLX4-64" value="empleado" style="ellipse;whiteSpace=wrap;html=1;align=center;" parent="1" vertex="1">
                    <mxGeometry x="190" y="480" width="100" height="40" as="geometry"/>
                </mxCell>
                <mxCell id="k2nv1DuakvxcrRJSJLX4-66" value="descuento" style="ellipse;whiteSpace=wrap;html=1;align=center;" parent="1" vertex="1">
                    <mxGeometry x="390" y="530" width="100" height="40" as="geometry"/>
                </mxCell>
                <mxCell id="k2nv1DuakvxcrRJSJLX4-70" value="1:N" style="edgeStyle=none;rounded=0;orthogonalLoop=1;jettySize=auto;html=1;exitX=1;exitY=0.5;exitDx=0;exitDy=0;entryX=0;entryY=0.5;entryDx=0;entryDy=0;endArrow=none;endFill=0;" parent="1" edge="1">
                    <mxGeometry relative="1" as="geometry">
                        <mxPoint x="140" y="310" as="sourcePoint"/>
                        <mxPoint x="320" y="440" as="targetPoint"/>
                    </mxGeometry>
                </mxCell>
                <mxCell id="k2nv1DuakvxcrRJSJLX4-81" style="edgeStyle=none;rounded=0;orthogonalLoop=1;jettySize=auto;html=1;exitX=1;exitY=0;exitDx=0;exitDy=0;entryX=0;entryY=0.5;entryDx=0;entryDy=0;endArrow=none;endFill=0;" parent="1" source="k2nv1DuakvxcrRJSJLX4-71" target="k2nv1DuakvxcrRJSJLX4-79" edge="1">
                    <mxGeometry relative="1" as="geometry"/>
                </mxCell>
                <mxCell id="k2nv1DuakvxcrRJSJLX4-85" style="edgeStyle=none;rounded=0;orthogonalLoop=1;jettySize=auto;html=1;exitX=1;exitY=1;exitDx=0;exitDy=0;entryX=0;entryY=0.5;entryDx=0;entryDy=0;endArrow=none;endFill=0;" parent="1" source="k2nv1DuakvxcrRJSJLX4-71" target="k2nv1DuakvxcrRJSJLX4-84" edge="1">
                    <mxGeometry relative="1" as="geometry"/>
                </mxCell>
                <mxCell id="k2nv1DuakvxcrRJSJLX4-71" value="descripcion" style="shape=associativeEntity;whiteSpace=wrap;html=1;align=center;" parent="1" vertex="1">
                    <mxGeometry x="630" y="410" width="140" height="60" as="geometry"/>
                </mxCell>
                <mxCell id="k2nv1DuakvxcrRJSJLX4-79" value="producto" style="ellipse;whiteSpace=wrap;html=1;align=center;" parent="1" vertex="1">
                    <mxGeometry x="810" y="370" width="100" height="40" as="geometry"/>
                </mxCell>
                <mxCell id="k2nv1DuakvxcrRJSJLX4-82" style="edgeStyle=none;rounded=0;orthogonalLoop=1;jettySize=auto;html=1;exitX=0;exitY=0.5;exitDx=0;exitDy=0;entryX=1;entryY=0.5;entryDx=0;entryDy=0;endArrow=none;endFill=0;" parent="1" source="k2nv1DuakvxcrRJSJLX4-80" target="k2nv1DuakvxcrRJSJLX4-71" edge="1">
                    <mxGeometry relative="1" as="geometry"/>
                </mxCell>
                <mxCell id="k2nv1DuakvxcrRJSJLX4-80" value="cantidad" style="ellipse;whiteSpace=wrap;html=1;align=center;" parent="1" vertex="1">
                    <mxGeometry x="810" y="420" width="100" height="40" as="geometry"/>
                </mxCell>
                <mxCell id="k2nv1DuakvxcrRJSJLX4-84" value="venta" style="ellipse;whiteSpace=wrap;html=1;align=center;" parent="1" vertex="1">
                    <mxGeometry x="810" y="470" width="100" height="40" as="geometry"/>
                </mxCell>
                <mxCell id="k2nv1DuakvxcrRJSJLX4-92" style="edgeStyle=none;rounded=0;orthogonalLoop=1;jettySize=auto;html=1;exitX=0.5;exitY=0;exitDx=0;exitDy=0;entryX=0;entryY=1;entryDx=0;entryDy=0;endArrow=none;endFill=0;" parent="1" source="k2nv1DuakvxcrRJSJLX4-90" target="k2nv1DuakvxcrRJSJLX4-6" edge="1">
                    <mxGeometry relative="1" as="geometry"/>
                </mxCell>
                <mxCell id="k2nv1DuakvxcrRJSJLX4-90" value="descripcion" style="ellipse;whiteSpace=wrap;html=1;align=center;" parent="1" vertex="1">
                    <mxGeometry x="480" y="270" width="100" height="40" as="geometry"/>
                </mxCell>
                <mxCell id="k2nv1DuakvxcrRJSJLX4-93" value="1:1" style="text;strokeColor=none;fillColor=none;spacingLeft=4;spacingRight=4;overflow=hidden;rotatable=0;points=[[0,0.5],[1,0.5]];portConstraint=eastwest;fontSize=12;align=center;" parent="1" vertex="1">
                    <mxGeometry x="-115" y="180" width="40" height="30" as="geometry"/>
                </mxCell>
                <mxCell id="k2nv1DuakvxcrRJSJLX4-94" value="1:1" style="text;strokeColor=none;fillColor=none;spacingLeft=4;spacingRight=4;overflow=hidden;rotatable=0;points=[[0,0.5],[1,0.5]];portConstraint=eastwest;fontSize=12;align=center;" parent="1" vertex="1">
                    <mxGeometry x="-337" y="400" width="40" height="30" as="geometry"/>
                </mxCell>
                <mxCell id="k2nv1DuakvxcrRJSJLX4-97" value="1:N" style="text;strokeColor=none;fillColor=none;spacingLeft=4;spacingRight=4;overflow=hidden;rotatable=0;points=[[0,0.5],[1,0.5]];portConstraint=eastwest;fontSize=12;align=center;" parent="1" vertex="1">
                    <mxGeometry x="350" y="655" width="40" height="30" as="geometry"/>
                </mxCell>
                <mxCell id="k2nv1DuakvxcrRJSJLX4-98" value="N:N" style="text;strokeColor=none;fillColor=none;spacingLeft=4;spacingRight=4;overflow=hidden;rotatable=0;points=[[0,0.5],[1,0.5]];portConstraint=eastwest;fontSize=12;align=center;" parent="1" vertex="1">
                    <mxGeometry x="680" y="475" width="40" height="30" as="geometry"/>
                </mxCell>
                <mxCell id="k2nv1DuakvxcrRJSJLX4-99" value="1:1" style="text;strokeColor=none;fillColor=none;spacingLeft=4;spacingRight=4;overflow=hidden;rotatable=0;points=[[0,0.5],[1,0.5]];portConstraint=eastwest;fontSize=12;align=center;" parent="1" vertex="1">
                    <mxGeometry x="765" y="120" width="30" height="60" as="geometry"/>
                </mxCell>
                <mxCell id="k2nv1DuakvxcrRJSJLX4-100" value="1:N" style="text;strokeColor=none;fillColor=none;spacingLeft=4;spacingRight=4;overflow=hidden;rotatable=0;points=[[0,0.5],[1,0.5]];portConstraint=eastwest;fontSize=12;align=center;" parent="1" vertex="1">
                    <mxGeometry x="60" y="255" width="40" height="30" as="geometry"/>
                </mxCell>
                <mxCell id="k2nv1DuakvxcrRJSJLX4-101" value="N:N" style="text;strokeColor=none;fillColor=none;spacingLeft=4;spacingRight=4;overflow=hidden;rotatable=0;points=[[0,0.5],[1,0.5]];portConstraint=eastwest;fontSize=12;align=center;" parent="1" vertex="1">
                    <mxGeometry x="310" y="20" width="40" height="30" as="geometry"/>
                </mxCell>
                <mxCell id="k2nv1DuakvxcrRJSJLX4-104" style="edgeStyle=none;rounded=0;orthogonalLoop=1;jettySize=auto;html=1;exitX=1;exitY=0.5;exitDx=0;exitDy=0;entryX=0.25;entryY=1;entryDx=0;entryDy=0;endArrow=none;endFill=0;" parent="1" source="k2nv1DuakvxcrRJSJLX4-103" target="k2nv1DuakvxcrRJSJLX4-38" edge="1">
                    <mxGeometry relative="1" as="geometry"/>
                </mxCell>
                <mxCell id="k2nv1DuakvxcrRJSJLX4-103" value="password" style="ellipse;whiteSpace=wrap;html=1;align=center;" parent="1" vertex="1">
                    <mxGeometry x="-517" y="260" width="100" height="40" as="geometry"/>
                </mxCell>
                <mxCell id="k2nv1DuakvxcrRJSJLX4-106" style="edgeStyle=none;rounded=0;orthogonalLoop=1;jettySize=auto;html=1;exitX=0.5;exitY=1;exitDx=0;exitDy=0;entryX=0.5;entryY=0;entryDx=0;entryDy=0;endArrow=none;endFill=0;" parent="1" source="k2nv1DuakvxcrRJSJLX4-105" edge="1">
                    <mxGeometry relative="1" as="geometry">
                        <mxPoint x="370" y="420" as="targetPoint"/>
                    </mxGeometry>
                </mxCell>
                <mxCell id="k2nv1DuakvxcrRJSJLX4-105" value="fecha" style="ellipse;whiteSpace=wrap;html=1;align=center;" parent="1" vertex="1">
                    <mxGeometry x="400" y="330" width="100" height="40" as="geometry"/>
                </mxCell>
                <mxCell id="k2nv1DuakvxcrRJSJLX4-108" style="edgeStyle=none;rounded=0;orthogonalLoop=1;jettySize=auto;html=1;exitX=0.5;exitY=0;exitDx=0;exitDy=0;entryX=0.25;entryY=1;entryDx=0;entryDy=0;endArrow=none;endFill=0;" parent="1" source="k2nv1DuakvxcrRJSJLX4-107" edge="1">
                    <mxGeometry relative="1" as="geometry">
                        <mxPoint x="345" y="460" as="targetPoint"/>
                    </mxGeometry>
                </mxCell>
                <mxCell id="k2nv1DuakvxcrRJSJLX4-107" value="cliente" style="ellipse;whiteSpace=wrap;html=1;align=center;" parent="1" vertex="1">
                    <mxGeometry x="260" y="530" width="100" height="40" as="geometry"/>
                </mxCell>
                <mxCell id="k2nv1DuakvxcrRJSJLX4-115" style="edgeStyle=none;rounded=0;orthogonalLoop=1;jettySize=auto;html=1;exitX=0.75;exitY=0;exitDx=0;exitDy=0;entryX=0.5;entryY=1;entryDx=0;entryDy=0;endArrow=none;endFill=0;" parent="1" source="k2nv1DuakvxcrRJSJLX4-109" target="k2nv1DuakvxcrRJSJLX4-114" edge="1">
                    <mxGeometry relative="1" as="geometry"/>
                </mxCell>
                <mxCell id="k2nv1DuakvxcrRJSJLX4-109" value="planilla" style="shape=associativeEntity;whiteSpace=wrap;html=1;align=center;" parent="1" vertex="1">
                    <mxGeometry x="-150" y="120" width="110" height="60" as="geometry"/>
                </mxCell>
                <mxCell id="k2nv1DuakvxcrRJSJLX4-113" style="edgeStyle=none;rounded=0;orthogonalLoop=1;jettySize=auto;html=1;exitX=0.5;exitY=1;exitDx=0;exitDy=0;entryX=0.25;entryY=0;entryDx=0;entryDy=0;endArrow=none;endFill=0;" parent="1" source="k2nv1DuakvxcrRJSJLX4-112" target="k2nv1DuakvxcrRJSJLX4-109" edge="1">
                    <mxGeometry relative="1" as="geometry"/>
                </mxCell>
                <mxCell id="k2nv1DuakvxcrRJSJLX4-112" value="&lt;u&gt;empleado&lt;/u&gt;" style="ellipse;whiteSpace=wrap;html=1;align=center;" parent="1" vertex="1">
                    <mxGeometry x="-200" y="20" width="100" height="40" as="geometry"/>
                </mxCell>
                <mxCell id="k2nv1DuakvxcrRJSJLX4-114" value="sucursal" style="ellipse;whiteSpace=wrap;html=1;align=center;" parent="1" vertex="1">
                    <mxGeometry x="-90" y="20" width="100" height="40" as="geometry"/>
                </mxCell>
                <mxCell id="diqf533qpP0sOaUMTr-r-1" value="sucursal" style="ellipse;whiteSpace=wrap;html=1;align=center;" parent="1" vertex="1">
                    <mxGeometry x="480" y="380" width="100" height="40" as="geometry"/>
                </mxCell>
                <mxCell id="diqf533qpP0sOaUMTr-r-5" value="valor" style="ellipse;whiteSpace=wrap;html=1;align=center;" parent="1" vertex="1">
                    <mxGeometry x="480" y="475" width="100" height="40" as="geometry"/>
                </mxCell>
                <mxCell id="diqf533qpP0sOaUMTr-r-9" style="rounded=0;orthogonalLoop=1;jettySize=auto;html=1;exitX=1;exitY=0.5;exitDx=0;exitDy=0;entryX=0.25;entryY=0;entryDx=0;entryDy=0;endArrow=none;endFill=0;" parent="1" edge="1">
                    <mxGeometry relative="1" as="geometry">
                        <mxPoint x="320" y="280" as="sourcePoint"/>
                        <mxPoint x="345" y="420" as="targetPoint"/>
                    </mxGeometry>
                </mxCell>
                <mxCell id="diqf533qpP0sOaUMTr-r-11" value="1:M" style="edgeLabel;html=1;align=center;verticalAlign=middle;resizable=0;points=[];" parent="diqf533qpP0sOaUMTr-r-9" connectable="0" vertex="1">
                    <mxGeometry x="0.1072" relative="1" as="geometry">
                        <mxPoint as="offset"/>
                    </mxGeometry>
                </mxCell>
                <mxCell id="diqf533qpP0sOaUMTr-r-12" value="M:M" style="text;html=1;strokeColor=none;fillColor=none;align=center;verticalAlign=middle;whiteSpace=wrap;rounded=0;" parent="1" vertex="1">
                    <mxGeometry x="230" y="220" width="60" height="30" as="geometry"/>
                </mxCell>
                <mxCell id="2" value="venta" style="shape=ext;margin=3;double=1;whiteSpace=wrap;html=1;align=center;" vertex="1" parent="1">
                    <mxGeometry x="320" y="420" width="100" height="40" as="geometry"/>
                </mxCell>
                <mxCell id="3" value="pertecece" style="shape=rhombus;double=1;perimeter=rhombusPerimeter;whiteSpace=wrap;html=1;align=center;" vertex="1" parent="1">
                    <mxGeometry x="200" y="250" width="120" height="60" as="geometry"/>
                </mxCell>
                <mxCell id="4" value="contiene" style="shape=rhombus;double=1;perimeter=rhombusPerimeter;whiteSpace=wrap;html=1;align=center;" vertex="1" parent="1">
                    <mxGeometry x="720" y="150" width="120" height="60" as="geometry"/>
                </mxCell>
                <mxCell id="5" value="pertecece" style="shape=rhombus;double=1;perimeter=rhombusPerimeter;whiteSpace=wrap;html=1;align=center;" vertex="1" parent="1">
                    <mxGeometry x="310" y="590" width="120" height="60" as="geometry"/>
                </mxCell>
                <mxCell id="6" value="pertecece" style="shape=rhombus;double=1;perimeter=rhombusPerimeter;whiteSpace=wrap;html=1;align=center;" vertex="1" parent="1">
                    <mxGeometry x="20" y="280" width="120" height="60" as="geometry"/>
                </mxCell>
            </root>
        </mxGraphModel>
    </diagram>
</mxfile>